<?xml version="1.0" encoding="utf-8"?>
<!-- Generator: Adobe Illustrator 26.1.0, SVG Export Plug-In . SVG Version: 6.00 Build 0)  -->
<svg version="1.1" id="Calque_1" xmlns="http://www.w3.org/2000/svg" xmlns:xlink="http://www.w3.org/1999/xlink" x="0px" y="0px"
	 viewBox="0 0 718.8 420.5" style="enable-background:new 0 0 718.8 420.5;" xml:space="preserve">
<style type="text/css">
	.st0{display:none;}
	.st1{display:inline;fill:#333333;}
	.st2{display:inline;}
	.st3{fill:#333333;}
	.st4{display:inline;fill:none;stroke:#333333;stroke-miterlimit:10;}
	.st5{display:inline;fill:#F7A1A1;stroke:#333333;stroke-miterlimit:10;}
	.st6{display:inline;fill:none;}
	.st7{display:inline;fill:#FFFFFF;stroke:#333333;stroke-miterlimit:10;}
	.st8{display:inline;fill:#ED2961;stroke:#333333;stroke-miterlimit:10;}
	.st9{display:inline;fill:#9E0A3B;stroke:#333333;stroke-miterlimit:10;}
	.st10{display:inline;fill:#FCFCFC;stroke:#333333;stroke-miterlimit:10;}
	.st11{fill:none;stroke:#000000;stroke-width:3;stroke-miterlimit:10;}
	.st12{fill:none;stroke:#F7A1A1;stroke-width:3;stroke-miterlimit:10;}
	.st13{fill:#020202;}
	.st14{fill:none;stroke:#020202;stroke-width:3;stroke-miterlimit:10;}
	.st15{stroke:#020202;stroke-width:3;stroke-miterlimit:10;}
	.st16{fill:#CAF4A8;stroke:#020202;stroke-width:3;stroke-miterlimit:10;}
</style>
<g id="Layer_1" class="st0">
	
		<ellipse transform="matrix(8.129916e-02 -0.9967 0.9967 8.129916e-02 2026.2759 2898.6125)" class="st1" cx="2585.5" cy="350.2" rx="136.1" ry="94.3"/>
	
		<ellipse transform="matrix(0.413 -0.9107 0.9107 0.413 1138.3173 2863.0935)" class="st1" cx="2790.1" cy="548.5" rx="140.6" ry="97.4"/>
	
		<ellipse transform="matrix(0.9956 -9.389829e-02 9.389829e-02 0.9956 -23.5546 220.8842)" class="st1" cx="2335.4" cy="360.7" rx="86.2" ry="124.5"/>
	
		<ellipse transform="matrix(0.9107 -0.413 0.413 0.9107 -34.865 935.8104)" class="st1" cx="2147.5" cy="548.6" rx="97.4" ry="140.6"/>
	<path class="st1" d="M2619.5,663.2c-45.4-69.2-109.6-75.6-132.1-75.5c-5.4,0-10.9,0-16.3,0c-22.5-0.1-86.6,6.3-132.1,75.5
		c-43.3,66-108.1,166.7-135.1,208.7c-13.9,21.7-19.4,47.9-14.6,73.3c6,31.3,28.2,65,95.4,66.3c33.9,0.7,67.4-7.4,97.6-22.8
		c21.2-10.8,52.8-23.8,83-23.4c9.3,0.1,18.6,0.1,27.8,0c30.1-0.4,61.8,12.5,83,23.4c30.2,15.4,63.7,23.5,97.6,22.8
		c67.2-1.3,89.4-34.9,95.4-66.3c4.9-25.3-0.6-51.6-14.6-73.3C2727.6,829.9,2662.8,729.2,2619.5,663.2z"/>
	<g transform="translate(0.000000,1280.000000) scale(0.100000,-0.100000)" class="st2">
		<path class="st3" d="M27579.1,8650.7c-0.4-0.5,2.2-16.2,6.1-35.1c16-79,21.4-141.3,19.6-220.8c-3.6-142-36-267.8-106.2-410.7
			c-61.4-125.4-124.7-219.4-296.6-442c-81-104.9-127.8-167.2-159.6-211.8c-173.5-245.1-244.8-439.1-239.4-651.5
			c1.3-58.3,2.7-73.4,11.7-127.1c15.8-94.3,54.5-211.5,100.8-303.8c99.9-199.2,259.5-345.2,459.3-420.2
			c306.7-115.2,663.7-44.8,936.2,185.2c13.5,11.5,29.7,25.6,36,31.7c23.4,22.5,82.8,107.6,116.8,167
			c211.1,368,208.2,816.7-7.9,1307.7c-24.5,55.8-83.7,172.4-116.3,229.5c-93.4,163.6-198,313-326.5,467
			c-115.7,138.2-252.3,277.5-393.8,401.5C27597.8,8636.1,27579.8,8651.2,27579.1,8650.7z"/>
	</g>
	<path class="st1" d="M2587,136.1c-0.2,1-4.6,22.7-9.6,48.3l-9.2,46.7l-6.6,7.1c-3.6,4-7.5,7.9-8.5,8.8
		c-14.8,12.9-28.2,38.1-35.6,66.5c-7.2,28.4-9.1,61.1-5.1,90c4.7,33.5,17,61.1,33.6,75.3c14.8,12.6,31.9,14.1,47.9,4.1
		c21.7-13.6,39-45.1,47.1-86c1.8-8.7,2.6-15.5,2.1-15.5c-0.3,0-0.1-7,0.4-15.5c0.9-15.1,0.8-24.1-0.3-35.1
		c-2.8-27.7-11.1-56.4-20.8-71.4c-5-7.9-13.8-16.7-20.7-20.6c-2.2-1.3-2.7-2-4.7-7l-2.3-5.6l-1.9-24.1c-1-13.3-2.6-33.7-3.6-45.3
		c-0.9-11.7-1.7-21.4-1.8-21.8C2587.5,134.7,2587.2,135.2,2587,136.1z"/>
	
		<image style="display:inline;overflow:visible;enable-background:new    ;" width="600" height="600" xlink:href="5E2C1D6D.jpeg"  transform="matrix(2.2233 0 0 2.2233 -189 -303.89)">
	</image>
</g>
<g id="Calque_2_00000010310810085418049090000009396569369591658648_" class="st0">
	<path class="st1" d="M2028.1,491.4c0,0,51.7-137.6,165.8-43.4c0,0,73.7,47.7,34.9,181.4c0,0-23.2,63.2-49,9.5l-33.6-62.3
		c0,0-18.6-40-25.6,6.1l-5.9,71c0,0,2,54-39.1,10.5C2075.6,664.1,2004.7,607.1,2028.1,491.4z"/>
	<path class="st4" d="M910.5,350.6c0,81.7-66.3,148-148,148s-148-66.3-148-148s66.3-148,148-148c17.5,0,34.3,3,49.9,8.6
		C869.6,231.7,910.5,286.4,910.5,350.6z"/>
	<polyline class="st4" points="832.5,220.2 953.5,174.6 904.1,307.5 	"/>
	<polyline class="st4" points="696.1,215.9 575.2,170.3 624.6,303.2 	"/>
	<circle class="st4" cx="698.5" cy="331.6" r="28"/>
	<circle class="st4" cx="820.5" cy="331.6" r="28"/>
	<circle class="st1" cx="702" cy="336.1" r="13.4"/>
	<circle class="st1" cx="820.1" cy="336.2" r="13.4"/>
	<ellipse class="st1" cx="762.5" cy="394.6" rx="18.5" ry="9.5"/>
	<path class="st5" d="M865.3,229.4l43.6-20.1c2.1-1,4.4,1.1,3.6,3.3l-17.9,51.6c-0.7,2-3.2,2.4-4.5,0.8l-25.7-31.4
		C863.2,232.1,863.7,230.1,865.3,229.4z"/>
	<path class="st5" d="M658.3,228.6l-41.1-19c-2.7-1.3-5.6,1.4-4.6,4.2l16.9,48.6c0.9,2.5,4.2,3.1,5.8,1l24.2-29.6
		C660.9,232.1,660.3,229.5,658.3,228.6z"/>
	<path class="st4" d="M795.5,295.1c0,0,33.2-32.8,55.5,0"/>
	<path class="st4" d="M666,298.5c0,0,33.2-32.8,55.5,0"/>
	<line class="st6" x1="832.5" y1="391" x2="946" y2="367.1"/>
	<line class="st6" x1="833.5" y1="397.5" x2="946" y2="401.1"/>
	<line class="st6" x1="833.5" y1="406.4" x2="946" y2="427.1"/>
	<line class="st6" x1="680.4" y1="387.3" x2="567" y2="363.5"/>
	<line class="st6" x1="679.4" y1="393.9" x2="567" y2="397.4"/>
	<line class="st6" x1="679.4" y1="402.8" x2="567" y2="423.5"/>
	<circle class="st7" cx="824.5" cy="332.6" r="4"/>
	<circle class="st7" cx="706.5" cy="332.6" r="4"/>
	<path class="st8" d="M799.6,427.1c-39.9,74.5-70.5,0-70.5,0H799.6z"/>
	<path class="st9" d="M736.4,440.7c0,0,4.4-8.1,10.7-13.1h-17.9L736.4,440.7z"/>
	<polygon class="st10" points="742.1,427.1 735.6,434.6 733.2,427.1 	"/>
	<path class="st10" d="M674.6,434.6"/>
	<polygon class="st10" points="796.7,427.6 790.2,435.1 787.8,427.6 	"/>
</g>
<g id="Calque_3">
	
		<image style="display:none;overflow:visible;enable-background:new    ;" width="378" height="221" xlink:href="5E2C1D6F.jpeg"  transform="matrix(-1 0 0 1 729 689.11)">
	</image>
	<path class="st11" d="M254.3,198.9c-0.8,3.9-1.8,7.4-3.1,10.7c-20.2,52.3-96,28.3-96,28.3c-42,78-46.5-6-36-19.5s9-9,31.5-15
		s25.5-51,25.5-51C86.2,111.8,165,73.6,165,73.6c3,136.6,145.6,6,145.6,6s5.2-3.8,5.2-11.3c0,0-72,34.5-85.5-6
		c-9.2-27.7,6.5-33.9,17.4-35.1c2.3-0.2,4.5,0,6.7,0.6c2.5,0.8,4.8,2.1,6.7,4c9.3,9.1,32.6,27.1,59.2,10.9"/>
	<path class="st11" d="M251.2,209.6c0,0,76.6,5.8,96.1-10.7"/>
	<path class="st11" d="M339.8,188.4c0,0,21,51,73.5-13.5l4.8-4.5"/>
	<path class="st11" d="M384.9,147.9c76.6-37.5,70.5,12,70.5,12c-18,43.5-42,4.1-42,4.1"/>
	<path class="st12" d="M315.8,68.3"/>
	<path class="st11" d="M392.4,102.4c0,0,5.9,34-7.6,45.4"/>
	<g>
		<g>
			<path class="st13" d="M361,53.8c0.2-0.8,0.4-1.6,0.6-2.4c0.1-0.4,0.2-0.7,0.3-1.1c0.1-0.2,0.1-0.4,0.2-0.6s0.4-0.7,0-0.1
				c0.4-0.7,0.7-1.4,1.1-2c0.3-0.4,0.1,0-0.1,0.1c0.1-0.1,0.2-0.3,0.3-0.4c0.2-0.3,0.5-0.5,0.7-0.7c0.1-0.1,0.3-0.2,0.4-0.3
				c-0.1,0.2-0.5,0.4-0.1,0.1c0.3-0.2,0.5-0.4,0.8-0.5c0.3-0.2,0.6-0.3,0.9-0.5c0.6-0.3-0.7,0.2-0.1,0c0.2-0.1,0.3-0.1,0.5-0.2
				c0.3-0.1,0.6-0.2,0.9-0.2c0.1,0,0.3-0.1,0.4-0.1c0.6-0.1-0.7,0.1-0.1,0c0.7-0.1,1.4-0.1,2.1,0c1.6,0.2,3.1-1.5,3-3
				c-0.1-1.8-1.3-2.8-3-3c-3.6-0.4-7.2,1-9.9,3.3c-2.9,2.5-4.1,6.2-4.9,9.9c-0.3,1.5,0.5,3.3,2.1,3.7
				C358.8,56.2,360.6,55.4,361,53.8L361,53.8z"/>
		</g>
	</g>
	<g>
		<g>
			<path class="st13" d="M398.4,85.4c3.9,0,3.9-6,0-6C394.5,79.4,394.5,85.4,398.4,85.4L398.4,85.4z"/>
		</g>
	</g>
	<g>
		<g>
			<path class="st13" d="M413.8,89.7c3.9,0,3.9-6,0-6C409.9,83.7,409.9,89.7,413.8,89.7L413.8,89.7z"/>
		</g>
	</g>
	<g>
		<g>
			<path class="st13" d="M423,77.3c3.9,0,3.9-6,0-6C419.2,71.3,419.2,77.3,423,77.3L423,77.3z"/>
		</g>
	</g>
	<path class="st14" d="M367.6,97.6c0,0,0-10.5,7.5-9"/>
	<path class="st15" d="M401.8,19c0,0,13.8,18.6,16.9,8.1c0,0,3-4.5,6,0s10.1,8.5,17,1.3c0,0-12.1-22.6-13.5-22.1s-2.5-3.6-10.2,0
		l-8.8,7.9L401.8,19z"/>
	<path class="st16" d="M392.8,130.9C312.3,142.4,290,96.5,290,96.5l10.8-8.7c0,0,44,39.3,92.9,26.8L392.8,130.9z"/>
	<g>
		<path d="M68.8,315.4c0,11.2-4.3,19.6-12.8,25.2c-8.5,5.6-20,8.4-34.4,8.4c-1.8,0-3.4,0-4.7-0.1c0,10.8,0.4,23.7,1.2,39H3.9
			c0.7-14,1.1-30.9,1.1-50.6c0-17-0.4-32.2-1.1-45.7h10.6c1.1,0,4.4-0.1,9.7-0.2s9.9-0.2,13.6-0.2c9.5,0,17,2.2,22.6,6.5
			C66,301.9,68.8,307.8,68.8,315.4z M56.5,319.7c0-12.7-8.7-19-26-19c-4.2,0-9,0.4-14.3,1.1c0.3,8,0.5,20.6,0.5,37.6
			c1.7,0.1,3.8,0.1,6.4,0.1C45.4,339.5,56.5,332.9,56.5,319.7z"/>
		<path d="M144.1,344.4c0,2.1-0.1,4.9-0.3,8.6L93,353.9c0.5,7.2,3.3,13.2,8.4,18.1c5.1,4.9,11.8,7.3,20.2,7.3
			c7.5,0,14.5-0.9,21.1-2.7l-1.3,10.4c-4.8,1.9-11.8,2.9-20.9,2.9c-12.8,0-22.6-3.5-29.3-10.5S81,363.8,81,353.7
			c0-10.8,3.1-20,9.2-27.8s14.4-11.6,24.7-11.6c9.5,0,16.8,2.8,21.7,8.4C141.6,328.3,144.1,335.6,144.1,344.4z M131.8,344.5
			c0-13.9-5.8-20.8-17.4-20.8c-11.8,0-18.8,7.2-20.9,21.6L131.8,344.5z"/>
		<path d="M201.7,377.6l-0.9,9.6c-3.9,1.4-7.6,2.1-11,2.1c-8.9,0-14.9-2.3-18.2-6.8c-3.2-4.5-4.9-12.6-4.9-24.2
			c0-7.5,0.1-17.4,0.1-29.5c-2.8,0-6.8,0.1-12.2,0.4l0.4-10.7c4.7,0.3,8.9,0.4,12.6,0.4c0-3,0.2-10,0.7-21.1l11.6-1.2
			c-0.8,10.4-1.3,17.8-1.3,22.3c4.8,0,11.9-0.2,21.3-0.7l-0.5,11c-8.9-0.3-16-0.4-21.4-0.4c-0.1,7.4-0.1,15.8-0.1,25.1
			c0,10.2,1.1,16.9,3.2,20.1c2.1,3.3,6.1,4.9,11.9,4.9C195.1,379.1,198,378.6,201.7,377.6z"/>
		<path d="M238.1,293.5c0,6.6-1.7,12.7-5.1,18.5c-3.4,5.7-8.6,11.7-15.6,17.8l-4.4-4.9c7.5-8.4,11.2-16.1,11.2-23.2
			c-4.2-1.7-6.4-4.8-6.4-9.3c0-2.9,0.9-5.4,2.7-7.5s4.4-3.2,7.9-3.2c2.9,0,5.2,1.2,7,3.5C237.2,287.4,238.1,290.2,238.1,293.5z"/>
		<path d="M335,387.8h-15.6c0-3.3-3.1-13.7-9.3-31.1h-42.7c-6.1,17.2-9.2,27.6-9.2,31.1h-14.9c0-1.8,6.4-17.6,19.1-47.3
			s19.1-46,19.1-49h17.2c0,2.9,6.1,19,18.2,48.3S335,385.1,335,387.8z M306.7,347c-11.6-28.9-17.4-44.3-17.4-46.1h-0.8
			c0,1.5-6,16.9-18,46.1H306.7z"/>
		<path d="M399.3,376.5l-0.7,9.9c-4,2.3-9.3,3.4-16,3.4c-12.8,0-22.5-3.5-29.3-10.6c-6.8-7-10.1-15.5-10.1-25.5
			c0-10.5,3.5-19.6,10.6-27.2s16.5-11.4,28.2-11.4c5.9,0,10.6,0.6,14.4,1.8l-2,11.6c-5.2-1.9-10.4-2.9-15.8-2.9
			c-7,0-12.6,2.4-16.7,7.3s-6.2,11-6.2,18.3c0,8,2.5,14.6,7.4,20c4.9,5.3,11.9,8,20.9,8C387.6,379.2,392.8,378.3,399.3,376.5z"/>
		<path d="M454.5,377.6l-0.9,9.6c-3.9,1.4-7.6,2.1-11,2.1c-8.9,0-14.9-2.3-18.2-6.8c-3.2-4.5-4.9-12.6-4.9-24.2
			c0-7.5,0-17.4,0.1-29.5c-2.8,0-6.8,0.1-12.2,0.4l0.4-10.7c4.7,0.3,8.9,0.4,12.6,0.4c0-3,0.2-10,0.7-21.1l11.6-1.2
			c-0.8,10.4-1.3,17.8-1.3,22.3c4.8,0,11.9-0.2,21.3-0.7l-0.5,11c-8.9-0.3-16-0.4-21.4-0.4c-0.1,7.4-0.1,15.8-0.1,25.1
			c0,10.2,1.1,16.9,3.2,20.1c2.1,3.3,6.1,4.9,11.9,4.9C447.9,379.1,450.7,378.6,454.5,377.6z"/>
		<path d="M481.7,387.8h-13.4c0.7-9.9,1-21.1,1-33.8c0-14.2-0.9-26.2-2.6-35.9l14.8-2c-0.6,10.3-0.9,22.9-0.9,37.9
			C480.7,365.8,481,377.1,481.7,387.8z M484.8,295.4c0,2.5-0.8,4.7-2.4,6.5c-1.6,1.9-3.9,2.8-6.9,2.8c-2.5,0-4.5-0.8-5.9-2.4
			s-2.1-3.5-2.1-5.8c0-2.5,0.8-4.6,2.5-6.4c1.7-1.8,4-2.7,7-2.7c2.4,0,4.3,0.8,5.7,2.4C484.1,291.3,484.8,293.2,484.8,295.4z"/>
		<path d="M561,317.5c0,2.4-5,14.1-15,34.9c-10,20.9-15,32.6-15,35.3h-9.9c0-3.5-4.4-15.5-13.2-36.2c-8.8-20.7-13.2-32-13.2-34h14.3
			c0,2.4,3.2,11.8,9.6,28.2c6.4,16.4,9.6,25.8,9.6,28.2h0.7c0-2.3,3-11.3,9.1-27.1c6.1-15.8,9.1-25.6,9.1-29.2L561,317.5L561,317.5z
			"/>
		<path d="M587.5,387.8h-13.4c0.7-9.9,1-21.1,1-33.8c0-14.2-0.9-26.2-2.6-35.9l14.8-2c-0.6,10.3-0.9,22.9-0.9,37.9
			C586.4,365.8,586.8,377.1,587.5,387.8z M590.6,295.4c0,2.5-0.8,4.7-2.4,6.5c-1.6,1.9-3.9,2.8-6.9,2.8c-2.5,0-4.5-0.8-5.9-2.4
			c-1.4-1.6-2.1-3.5-2.1-5.8c0-2.5,0.8-4.6,2.5-6.4c1.7-1.8,4-2.7,7-2.7c2.4,0,4.3,0.8,5.7,2.4C589.9,291.3,590.6,293.2,590.6,295.4
			z"/>
		<path d="M647.6,377.6l-0.9,9.6c-3.9,1.4-7.6,2.1-11,2.1c-8.9,0-14.9-2.3-18.2-6.8c-3.2-4.5-4.9-12.6-4.9-24.2
			c0-7.5,0-17.4,0.2-29.5c-2.8,0-6.8,0.1-12.2,0.4l0.4-10.7c4.7,0.3,8.9,0.4,12.6,0.4c0-3,0.2-10,0.7-21.1l11.6-1.2
			c-0.8,10.4-1.3,17.8-1.3,22.3c4.8,0,11.9-0.2,21.3-0.7l-0.5,11c-8.9-0.3-16-0.4-21.4-0.4c-0.1,7.4-0.2,15.8-0.2,25.1
			c0,10.2,1.1,16.9,3.2,20.1c2.1,3.3,6.1,4.9,11.9,4.9C641,379.1,643.8,378.6,647.6,377.6z"/>
		<path d="M718.8,317.5c0,3.2-3.7,13.2-11.2,30.2c-8.5,19.4-13.8,33-15.9,41c-3.4,12.9-6.6,21-9.5,24.5c-3.9,4.8-11,7.2-21.1,7.2
			l-0.6-10.4c6.2,0,11.3-2.1,15.4-6.3s6.1-9.4,6.1-15.8c0-5.5-4.5-18.5-13.6-39s-13.6-31.1-13.6-31.5h15.3c0,1.3,3.1,10.3,9.3,26.9
			c6.2,16.6,9.3,26.8,9.3,30.7h0.7c0-3.2,2.6-12.5,7.9-27.9c5.2-15.4,7.9-25.3,7.9-29.7H718.8z"/>
	</g>
	<path class="st14" d="M374.3,95.3c40.5,21,58.5-1.5,58.5-1.5c33-45-3-85.6-3-85.6c-6-9-13.5-0.6-13.5-0.6
		c-18,18.9-37.6,17.1-37.6,17.1c-27-18-55.5,9-55.5,9c-27-3-46.5-19.5-46.5-19.5s-24.6-21.5-23.3,13.3l0.9,0.2"/>
</g>
</svg>
